<svg width="105" height="32" viewBox="0 0 105 32" fill="none" xmlns="http://www.w3.org/2000/svg">
<path d="M2.16778 25V8.2H9.43978C10.9438 8.2 12.2398 8.448 13.3278 8.944C14.4158 9.424 15.2558 10.12 15.8478 11.032C16.4398 11.944 16.7358 13.032 16.7358 14.296C16.7358 15.544 16.4398 16.624 15.8478 17.536C15.2558 18.448 14.4158 19.152 13.3278 19.648C12.2398 20.128 10.9438 20.368 9.43978 20.368H4.32778L6.05578 18.616V25H2.16778ZM6.05578 19.048L4.32778 17.2H9.22378C10.4238 17.2 11.3198 16.944 11.9118 16.432C12.5038 15.92 12.7998 15.208 12.7998 14.296C12.7998 13.368 12.5038 12.648 11.9118 12.136C11.3198 11.624 10.4238 11.368 9.22378 11.368H4.32778L6.05578 9.52V19.048ZM24.9299 25.192C23.8579 25.192 22.8979 24.984 22.0499 24.568C21.2179 24.152 20.5699 23.52 20.1059 22.672C19.6419 21.808 19.4099 20.712 19.4099 19.384V12.088H23.1539V18.832C23.1539 19.904 23.3779 20.696 23.8259 21.208C24.2899 21.704 24.9379 21.952 25.7699 21.952C26.3459 21.952 26.8579 21.832 27.3059 21.592C27.7539 21.336 28.1059 20.952 28.3619 20.44C28.6179 19.912 28.7459 19.256 28.7459 18.472V12.088H32.4899V25H28.9379V21.448L29.5859 22.48C29.1539 23.376 28.5139 24.056 27.6659 24.52C26.8339 24.968 25.9219 25.192 24.9299 25.192ZM35.9585 25V7.192H39.7025V25H35.9585ZM47.5212 25.192C46.4172 25.192 45.3532 25.064 44.3292 24.808C43.3212 24.536 42.5212 24.2 41.9292 23.8L43.1772 21.112C43.7692 21.48 44.4652 21.784 45.2652 22.024C46.0812 22.248 46.8812 22.36 47.6652 22.36C48.5292 22.36 49.1372 22.256 49.4892 22.048C49.8572 21.84 50.0412 21.552 50.0412 21.184C50.0412 20.88 49.8972 20.656 49.6092 20.512C49.3372 20.352 48.9692 20.232 48.5052 20.152C48.0412 20.072 47.5292 19.992 46.9692 19.912C46.4252 19.832 45.8732 19.728 45.3132 19.6C44.7532 19.456 44.2412 19.248 43.7772 18.976C43.3132 18.704 42.9372 18.336 42.6492 17.872C42.3772 17.408 42.2412 16.808 42.2412 16.072C42.2412 15.256 42.4732 14.536 42.9372 13.912C43.4172 13.288 44.1052 12.8 45.0012 12.448C45.8972 12.08 46.9692 11.896 48.2172 11.896C49.0972 11.896 49.9932 11.992 50.9052 12.184C51.8172 12.376 52.5772 12.656 53.1852 13.024L51.9372 15.688C51.3132 15.32 50.6812 15.072 50.0412 14.944C49.4172 14.8 48.8092 14.728 48.2172 14.728C47.3852 14.728 46.7772 14.84 46.3932 15.064C46.0092 15.288 45.8172 15.576 45.8172 15.928C45.8172 16.248 45.9532 16.488 46.2252 16.648C46.5132 16.808 46.8892 16.936 47.3532 17.032C47.8172 17.128 48.3212 17.216 48.8652 17.296C49.4252 17.36 49.9852 17.464 50.5452 17.608C51.1052 17.752 51.6092 17.96 52.0572 18.232C52.5212 18.488 52.8972 18.848 53.1852 19.312C53.4732 19.76 53.6172 20.352 53.6172 21.088C53.6172 21.888 53.3772 22.6 52.8972 23.224C52.4172 23.832 51.7212 24.312 50.8092 24.664C49.9132 25.016 48.8172 25.192 47.5212 25.192ZM62.3352 25.192C60.8632 25.192 59.5672 24.904 58.4472 24.328C57.3432 23.752 56.4872 22.968 55.8792 21.976C55.2712 20.968 54.9672 19.824 54.9672 18.544C54.9672 17.248 55.2632 16.104 55.8552 15.112C56.4632 14.104 57.2872 13.32 58.3272 12.76C59.3672 12.184 60.5432 11.896 61.8552 11.896C63.1192 11.896 64.2552 12.168 65.2632 12.712C66.2872 13.24 67.0952 14.008 67.6872 15.016C68.2792 16.008 68.5752 17.2 68.5752 18.592C68.5752 18.736 68.5672 18.904 68.5512 19.096C68.5352 19.272 68.5192 19.44 68.5032 19.6H58.0152V17.416H66.5352L65.0952 18.064C65.0952 17.392 64.9592 16.808 64.6872 16.312C64.4152 15.816 64.0392 15.432 63.5592 15.16C63.0792 14.872 62.5192 14.728 61.8792 14.728C61.2392 14.728 60.6712 14.872 60.1752 15.16C59.6952 15.432 59.3192 15.824 59.0472 16.336C58.7752 16.832 58.6392 17.424 58.6392 18.112V18.688C58.6392 19.392 58.7912 20.016 59.0952 20.56C59.4152 21.088 59.8552 21.496 60.4152 21.784C60.9912 22.056 61.6632 22.192 62.4312 22.192C63.1192 22.192 63.7192 22.088 64.2312 21.88C64.7592 21.672 65.2392 21.36 65.6712 20.944L67.6632 23.104C67.0712 23.776 66.3272 24.296 65.4312 24.664C64.5352 25.016 63.5032 25.192 62.3352 25.192ZM78.7958 25.288C76.4118 25.288 74.5478 24.624 73.2038 23.296C71.8598 21.968 71.1878 20.072 71.1878 17.608V8.2H75.0758V17.464C75.0758 19.064 75.4038 20.216 76.0598 20.92C76.7158 21.624 77.6358 21.976 78.8198 21.976C80.0038 21.976 80.9238 21.624 81.5798 20.92C82.2358 20.216 82.5638 19.064 82.5638 17.464V8.2H86.4038V17.608C86.4038 20.072 85.7318 21.968 84.3878 23.296C83.0438 24.624 81.1798 25.288 78.7958 25.288ZM97.6139 25.192C96.5259 25.192 95.5739 24.952 94.7579 24.472C93.9419 23.992 93.3019 23.264 92.8379 22.288C92.3899 21.296 92.1659 20.048 92.1659 18.544C92.1659 17.024 92.3819 15.776 92.8139 14.8C93.2459 13.824 93.8699 13.096 94.6859 12.616C95.5019 12.136 96.4779 11.896 97.6139 11.896C98.8299 11.896 99.9179 12.176 100.878 12.736C101.854 13.28 102.622 14.048 103.182 15.04C103.758 16.032 104.046 17.2 104.046 18.544C104.046 19.904 103.758 21.08 103.182 22.072C102.622 23.064 101.854 23.832 100.878 24.376C99.9179 24.92 98.8299 25.192 97.6139 25.192ZM89.9819 29.656V12.088H93.5579V14.728L93.4859 18.568L93.7259 22.384V29.656H89.9819ZM96.9659 22.12C97.5899 22.12 98.1419 21.976 98.6219 21.688C99.1179 21.4 99.5099 20.992 99.7979 20.464C100.102 19.92 100.254 19.28 100.254 18.544C100.254 17.792 100.102 17.152 99.7979 16.624C99.5099 16.096 99.1179 15.688 98.6219 15.4C98.1419 15.112 97.5899 14.968 96.9659 14.968C96.3419 14.968 95.7819 15.112 95.2859 15.4C94.7899 15.688 94.3979 16.096 94.1099 16.624C93.8219 17.152 93.6779 17.792 93.6779 18.544C93.6779 19.28 93.8219 19.92 94.1099 20.464C94.3979 20.992 94.7899 21.4 95.2859 21.688C95.7819 21.976 96.3419 22.12 96.9659 22.12Z" fill="#21C45D"/>
</svg>
